<svg width="1029" height="1110" viewBox="0 0 1029 1110" fill="none" xmlns="http://www.w3.org/2000/svg">
<path opacity="0.5" d="M318.635 35.6942C198.697 136.217 180.111 326.298 98.8809 466.527C70.6041 515.322 34.0667 558.992 15.0036 613.123C-28.7619 737.026 31.472 877.572 112.093 975.981C150.536 1022.93 195.44 1065.94 249.77 1085.72C291.55 1100.94 336.348 1101.57 380.325 1101.97L1150.79 1109.9C1236.81 1110.77 1332.39 1107.62 1394.24 1041.21C1436.87 995.478 1454.18 928.692 1468.88 864.944C1486.93 786.613 1503.3 701.546 1475.2 626.94C1443.11 541.582 1361.96 493.21 1311.55 419.555C1229.74 300.223 1231.62 119.731 1127.44 24.4664C1078.8 -19.9959 1014.62 -37.4321 952.083 -46.1502C834.184 -62.6089 722.506 -31.5408 606.725 -35.8734C507.756 -39.572 400.739 -33.1259 318.635 35.6942Z" fill="#E7ECFF"/>
</svg>
